<?xml version="1.0" encoding="UTF-8" standalone="no"?>
<!-- Generator: Gravit.io -->
<svg xmlns="http://www.w3.org/2000/svg" xmlns:xlink="http://www.w3.org/1999/xlink" style="isolation:isolate" viewBox="0 0 240 290" width="240pt" height="290pt"><defs><clipPath id="_clipPath_aBeN98d9FK81wQJQFk7soP1oKYJqyEkH"><rect width="240" height="290"/></clipPath></defs><g clip-path="url(#_clipPath_aBeN98d9FK81wQJQFk7soP1oKYJqyEkH)"><g><path d=" M 122.201 217.845 C 122.3 218.313 122.348 218.679 122.455 219.029 C 125.014 227.388 127.599 235.74 130.116 244.112 C 130.45 245.221 131.048 245.53 132.102 245.602 C 135.509 245.834 138.914 246.014 142.329 245.997 C 143.446 245.992 144.563 246.026 145.68 246.019 C 147.255 246.008 147.255 245.999 147.223 244.504 C 147.221 244.38 147.213 244.256 147.208 244.132 C 146.891 235.885 146.576 227.637 146.26 219.39 C 146.2 217.826 146.199 217.773 144.554 217.764 C 137.356 217.726 130.157 217.721 122.958 217.71 C 122.779 217.709 122.599 217.772 122.201 217.845 Z  M 174.23 217.998 C 173.719 217.938 173.477 217.887 173.235 217.885 C 165.603 217.849 157.971 217.81 150.338 217.79 C 148.784 217.786 148.765 217.824 148.823 219.502 C 149.05 226.075 149.288 232.649 149.526 239.222 C 149.595 241.083 149.7 242.942 149.741 244.803 C 149.762 245.715 150.055 246.122 151.061 246.112 C 156.46 246.051 161.859 246.065 167.258 246.029 C 168.608 246.02 168.62 245.983 168.902 244.587 C 170.079 238.752 171.249 232.915 172.419 227.078 C 173.014 224.107 173.605 221.133 174.23 217.998 Z  M 127.475 245.004 C 127.672 244.412 127.437 243.965 127.294 243.501 C 124.845 235.508 122.388 227.516 119.96 219.517 C 119.311 217.379 119.4 217.608 117.448 217.596 C 108.461 217.544 99.473 217.525 90.486 217.503 C 90.024 217.502 89.517 217.391 89.087 217.713 C 89.14 217.974 89.143 218.165 89.218 218.324 C 91.534 223.254 93.769 228.21 96.948 232.7 C 99.893 236.86 103.752 239.62 108.411 241.498 C 112.831 243.28 117.458 244.039 122.137 244.607 C 123.902 244.821 125.67 245.146 127.475 245.004 Z  M 207.108 218.134 C 206.85 217.908 206.534 217.968 206.236 217.967 C 196.935 217.928 187.634 217.889 178.332 217.864 C 176.866 217.86 176.843 217.886 176.548 219.347 C 174.871 227.669 173.203 235.992 171.548 244.319 C 171.455 244.785 171.261 245.268 171.462 245.788 C 171.632 245.827 171.809 245.907 171.986 245.904 C 176.825 245.81 181.646 245.425 186.449 244.866 C 188.893 244.58 191.073 243.53 193.008 241.984 C 194.715 240.619 196.221 239.071 197.477 237.282 C 201.458 231.617 204.47 225.449 206.98 219.02 C 207.09 218.741 207.26 218.457 207.108 218.134 Z  M 111.574 183.377 C 112.013 184.853 112.373 186.093 112.752 187.328 C 115.438 196.093 118.132 204.856 120.809 213.622 C 121.07 214.478 121.229 215.182 122.454 215.178 C 129.831 215.151 137.209 215.222 144.587 215.244 C 146.043 215.249 146.043 215.217 146.046 213.804 C 146.046 213.618 146.036 213.432 146.028 213.246 C 145.669 203.893 145.311 194.538 144.948 185.185 C 144.877 183.351 144.866 183.349 143.079 183.344 C 135.143 183.324 127.208 183.299 119.273 183.293 C 116.797 183.291 114.322 183.345 111.574 183.377 Z  M 164.462 183.508 C 164.461 183.481 164.46 183.453 164.459 183.427 C 159.313 183.389 154.168 183.339 149.021 183.32 C 147.412 183.313 147.396 183.352 147.454 185.001 C 147.573 188.408 147.711 191.816 147.842 195.224 C 148.077 201.357 148.306 207.491 148.554 213.624 C 148.616 215.195 148.641 215.21 150.095 215.219 C 157.224 215.261 164.355 215.304 171.485 215.318 C 172.527 215.321 173.765 215.709 174.566 215.088 C 175.376 214.46 175.203 213.155 175.408 212.141 C 177.253 203.032 179.076 193.92 180.888 184.806 C 181.174 183.372 181.137 183.327 179.713 183.339 C 174.629 183.38 169.545 183.449 164.462 183.508 Z  M 75.831 183.466 C 75.654 184.127 76.019 184.674 76.205 185.25 C 79.281 194.751 83.102 203.966 86.862 213.207 C 87.43 214.603 88.156 215.005 89.61 215.001 C 98.601 214.977 107.594 215.052 116.585 215.102 C 118.596 215.113 118.605 215.124 118.022 213.22 C 115.158 203.859 112.289 194.499 109.42 185.14 C 108.87 183.347 108.866 183.34 107.06 183.338 C 97.201 183.328 87.34 183.321 77.48 183.322 C 76.93 183.322 76.364 183.211 75.831 183.466 Z  M 177.398 215.254 C 178.138 215.278 178.567 215.302 178.997 215.304 C 187.681 215.342 196.367 215.407 205.052 215.4 C 209.105 215.396 208.133 216.102 209.458 212.222 C 212.565 203.123 214.757 193.758 217.336 184.505 C 217.415 184.223 217.529 183.913 217.246 183.508 C 216.789 183.483 216.243 183.425 215.698 183.424 C 205.524 183.415 195.349 183.408 185.176 183.412 C 183.788 183.413 183.768 183.437 183.491 184.812 C 181.949 192.468 180.417 200.127 178.883 207.785 C 178.397 210.208 177.919 212.633 177.398 215.254 Z  M 108.06 180.703 C 107.553 179.039 107.122 177.622 106.689 176.206 C 104.148 167.91 101.611 159.613 99.063 151.319 C 98.603 149.82 98.582 149.828 97.031 149.802 C 94.923 149.765 92.814 149.714 90.705 149.689 C 87.17 149.648 83.633 149.683 80.1 149.574 C 76.13 149.452 72.162 149.432 68.194 149.57 C 67.394 149.598 66.601 149.795 65.803 149.893 C 65.041 149.988 64.91 150.438 65.091 151.082 C 65.158 151.321 65.242 151.554 65.311 151.793 C 68.007 161.08 71.02 170.265 74.203 179.397 C 74.572 180.455 75.068 180.802 76.181 180.798 C 86.416 180.762 96.651 180.785 106.887 180.787 C 107.187 180.787 107.488 180.745 108.06 180.703 Z  M 184.599 180.765 C 184.813 180.804 185.054 180.884 185.293 180.885 C 195.844 180.897 206.394 180.908 216.945 180.903 C 218.305 180.903 218.318 180.866 218.724 179.338 C 220.615 172.213 222.511 165.09 224.374 157.959 C 224.718 156.644 224.973 155.3 225.176 153.956 C 225.433 152.246 225.014 151.693 223.366 151.342 C 223.003 151.263 222.636 151.187 222.266 151.159 C 219.422 150.942 216.579 150.652 213.729 150.545 C 206.537 150.273 199.342 150.083 192.147 149.867 C 190.516 149.818 190.504 149.826 190.196 151.352 C 188.335 160.592 186.476 169.833 184.63 179.076 C 184.522 179.61 184.325 180.162 184.599 180.765 Z  M 187.814 149.635 C 185.616 149.66 183.515 149.695 181.414 149.706 C 173.968 149.748 166.522 149.91 159.074 149.729 C 155.166 149.634 151.255 149.71 147.345 149.672 C 146.475 149.664 146.061 149.936 146.177 150.848 C 146.223 151.215 146.195 151.592 146.21 151.964 C 146.56 161.08 146.91 170.196 147.265 179.312 C 147.322 180.741 147.335 180.741 148.712 180.803 C 148.897 180.811 149.084 180.813 149.269 180.813 C 159.635 180.821 169.999 180.832 180.363 180.834 C 181.661 180.834 181.682 180.814 181.974 179.372 C 183.6 171.349 185.232 163.327 186.821 155.298 C 187.179 153.492 187.688 151.705 187.814 149.635 Z  M 121.63 149.57 C 116.044 149.634 109.658 149.707 103.271 149.781 C 102.899 149.785 102.527 149.792 102.155 149.797 C 101.578 149.804 101.394 150.109 101.531 150.638 C 101.607 150.938 101.709 151.231 101.799 151.527 C 104.608 160.71 107.414 169.894 110.226 179.075 C 110.746 180.771 110.759 180.77 112.498 180.773 C 121.303 180.788 130.109 180.802 138.914 180.812 C 140.465 180.814 142.015 180.763 143.564 180.799 C 144.466 180.82 144.803 180.453 144.708 179.581 C 144.661 179.152 144.691 178.714 144.674 178.281 C 144.325 169.234 143.975 160.188 143.622 151.142 C 143.567 149.742 143.555 149.751 142.147 149.68 C 135.577 149.352 129.004 149.672 121.63 149.57 Z  M 140.087 147.107 C 155.972 147.19 171.112 147.261 186.254 147.174 C 193.26 147.134 200.266 147.592 207.274 147.791 C 211.74 147.917 216.202 148.094 220.653 148.492 C 221.64 148.58 222.63 148.673 223.611 148.817 C 226.786 149.286 227.895 150.7 227.528 153.921 C 227.275 156.143 226.625 158.29 226.094 160.455 C 222.503 175.088 218.676 189.658 214.603 204.164 C 211.833 214.035 208.425 223.662 203.382 232.641 C 201.768 235.512 200.046 238.305 197.888 240.813 C 194.269 245.016 189.783 247.239 184.179 247.718 C 172.159 248.744 160.131 248.658 148.094 248.524 C 146.604 248.507 145.115 248.529 143.626 248.533 C 134.049 248.561 124.541 247.705 115.112 246.096 C 110.434 245.298 106.041 243.582 101.981 241.081 C 99.792 239.733 97.899 238.061 96.326 236.02 C 93.743 232.668 91.526 229.105 89.68 225.284 C 82.435 210.291 76.642 194.734 71.354 178.964 C 68.357 170.028 65.445 161.069 62.779 152.029 C 62.691 151.732 62.588 151.437 62.526 151.134 C 62.123 149.154 62.652 148.238 64.577 147.616 C 65.947 147.174 67.368 147.047 68.797 146.986 C 74.196 146.752 79.593 147.015 84.988 147.117 C 100.751 147.414 116.51 147.021 132.271 146.999 C 135.126 146.995 137.98 146.952 140.087 147.107 Z " fill="rgb(232,40,46)"/><path d=" M 173.271 257.563 C 167.654 257.651 159.463 257.851 151.273 257.881 C 145.009 257.905 138.751 257.544 132.492 257.281 C 128.34 257.106 124.19 256.972 120.059 256.463 C 114.561 255.787 109.191 254.625 104.008 252.621 C 96.811 249.839 91.209 245.147 87.079 238.667 C 83.732 233.418 81.147 227.773 78.736 222.061 C 72.149 206.463 66.304 190.578 60.605 174.638 C 57.912 167.108 55.554 159.459 52.569 152.033 C 52.153 150.999 51.674 149.988 51.259 148.953 C 49.451 144.439 45.931 142.5 41.261 142.194 C 38.525 142.015 35.799 142.13 33.079 142.334 C 25.398 142.908 17.696 142.754 10.008 143.06 C 9.822 143.068 9.636 143.067 9.45 143.068 C 8.777 143.071 8.159 142.909 8.065 142.137 C 7.96 141.265 8.574 140.944 9.314 140.834 C 9.742 140.77 10.179 140.76 10.613 140.742 C 19.728 140.37 28.842 139.995 37.957 139.632 C 40.193 139.543 42.401 139.688 44.61 140.17 C 48.396 140.995 51.096 143.153 52.868 146.525 C 54.72 150.049 56.079 153.788 57.349 157.543 C 63.528 175.812 70.205 193.898 77.235 211.854 C 79.813 218.439 82.616 224.928 85.792 231.25 C 88.283 236.209 91.123 240.915 95.426 244.58 C 97.662 246.485 100.047 248.127 102.73 249.33 C 108.152 251.761 113.857 253.102 119.732 253.87 C 124.418 254.482 129.13 254.561 133.835 254.826 C 147.229 255.579 160.625 255.224 174.027 255.04 C 182.403 254.923 190.777 254.762 199.15 254.527 C 200.389 254.492 201.626 254.36 202.866 254.324 C 203.799 254.296 204.386 254.788 204.44 255.539 C 204.495 256.292 204.013 256.776 203.011 256.896 C 202.396 256.969 201.772 256.969 201.152 256.991 C 192.718 257.292 184.285 257.563 173.271 257.563 Z " fill="rgb(232,40,46)"/><path d=" M 86.406 102.167 C 85.659 102.212 85.293 102.216 84.931 102.259 C 83.217 102.46 81.594 102.989 79.982 103.588 C 78.526 104.129 77.798 103.656 77.601 102.146 C 77.535 101.645 77.593 101.125 77.509 100.628 C 77.446 100.256 77.612 99.704 76.977 99.608 C 76.608 99.925 76.489 100.363 76.338 100.775 C 75.482 103.104 75.352 103.158 73.075 102.429 C 72.308 102.183 71.53 101.877 70.499 102.021 C 71.442 102.866 72.278 103.604 73.103 104.356 C 74.546 105.671 74.565 106.019 73.337 107.476 C 73.052 107.814 72.708 108.138 72.54 108.532 C 72.203 109.325 71.569 110.085 71.955 111.207 C 73.302 109.892 74.509 108.68 75.752 107.508 C 77.285 106.063 78.139 106.094 79.583 107.689 C 80.389 108.581 81.097 109.561 81.863 110.49 C 82.249 110.959 82.51 111.575 83.201 111.748 C 83.395 109.831 83.221 109.163 82.148 107.646 C 81.046 106.089 81.196 105.389 82.861 104.518 C 83.981 103.931 85.168 103.457 86.406 102.167 Z  M 70.723 106.76 C 66.03 106.612 61.772 109.73 60.835 114.142 C 59.362 121.08 61.674 128.345 70.039 131.073 C 76.571 133.203 82.956 132.318 89.109 129.455 C 90.572 128.774 91.815 127.744 92.641 126.351 C 95.593 121.378 96.057 116.179 93.714 110.857 C 92.632 108.4 90.617 106.88 88.031 106.166 C 86.91 105.855 85.794 105.82 84.753 106.589 C 84.997 107.167 85.241 107.681 85.435 108.213 C 86.133 110.135 86.156 112.083 85.464 113.999 C 84.785 115.88 83.352 116.165 82.034 114.673 C 80.775 113.249 79.582 111.764 78.4 110.274 C 77.844 109.574 77.402 109.472 76.725 110.161 C 75.214 111.699 73.645 113.182 72.079 114.665 C 71.511 115.203 70.855 115.624 70.022 115.25 C 69.258 114.907 69.21 114.184 69.152 113.478 C 68.961 111.132 69.507 108.947 70.723 106.76 Z  M 80.355 100.593 C 82.096 100.147 83.825 99.758 85.593 99.584 C 86.546 99.49 87.496 99.45 88.439 99.65 C 90.114 100.004 90.547 100.943 89.735 102.407 C 89.495 102.839 89.008 103.134 89 103.673 C 89.124 103.97 89.39 104.002 89.614 104.091 C 94.011 105.848 96.514 109.148 97.371 113.733 C 98.241 118.394 97.623 122.838 95.276 127.005 C 94.119 129.059 92.529 130.691 90.407 131.694 C 83.347 135.032 76.02 135.995 68.575 133.305 C 58.56 129.687 56.539 120.297 58.447 113.084 C 59.535 108.97 62.398 106.207 66.431 104.739 C 67.068 104.507 67.715 104.306 68.357 104.091 C 68.188 103.267 67.46 103.093 67.084 102.604 C 66.699 102.102 66.23 101.645 65.937 101.093 C 65.224 99.751 65.906 98.646 67.44 98.679 C 68.776 98.708 70.075 99.042 71.382 99.321 C 74.164 99.915 73.663 100.35 74.771 97.63 C 75.034 96.984 75.364 96.365 75.678 95.741 C 76.039 95.027 76.506 94.437 77.42 94.513 C 78.239 94.582 78.619 95.173 78.879 95.846 C 79.176 96.616 79.441 97.4 79.687 98.188 C 79.913 98.914 80.096 99.653 80.355 100.593 Z " fill="rgb(232,40,46)"/><path d=" M 186.938 60.328 C 186.985 60.192 187.088 60.052 187.066 59.937 C 186.754 58.305 186.309 56.712 185.6 55.202 C 185.452 54.885 185.199 54.847 184.884 54.95 C 184.5 55.076 184.206 55.32 184.333 55.726 C 184.805 57.238 185.284 58.75 185.85 60.228 C 186.048 60.746 186.545 60.605 186.938 60.328 Z  M 182.584 59.849 C 182.043 57.358 182.044 57.363 179.833 57.888 C 178.989 58.088 178.139 58.265 177.289 58.44 C 174.434 59.027 171.852 58.497 169.53 56.665 C 168.336 55.724 166.981 55.017 165.564 54.445 C 163.879 53.764 162.171 53.791 160.463 54.3 C 159.014 54.731 158.953 54.918 159.548 56.24 C 160.292 57.888 161.073 59.521 161.747 61.197 C 163.122 64.62 164.42 68.073 165.784 71.501 C 166.47 73.231 166.553 73.22 168.317 72.539 C 170.901 71.543 172.392 69.558 173.106 67.013 C 173.906 64.163 175.846 62.495 178.415 61.399 C 179.742 60.833 181.121 60.388 182.584 59.849 Z  M 163.445 73.684 C 161.216 67.968 159.502 62.326 156.768 56.733 C 155.272 58.358 153.776 59.562 151.949 60.286 C 150.085 61.025 148.021 60.742 146.018 61.327 C 148.51 67.552 150.584 73.752 153.35 79.907 C 156.548 77.283 158.913 73.856 163.445 73.684 Z  M 150.523 81.198 C 149.525 78.583 148.533 76.031 147.577 73.464 C 146.239 69.87 144.926 66.267 143.608 62.666 C 143.345 61.947 143.087 61.343 142.08 61.615 C 138.443 62.595 135.71 64.524 134.396 68.245 C 132.875 72.552 135.752 78.917 139.135 81.096 C 139.675 81.445 140.279 81.753 140.897 81.915 C 144.139 82.765 147.323 82.639 150.523 81.198 Z  M 168.015 52.286 C 168.993 52.766 169.911 53.339 170.753 54.035 C 172.788 55.713 175.072 56.294 177.654 55.602 C 178.493 55.378 179.35 55.228 180.199 55.044 C 180.789 54.916 181.176 54.681 181.416 54.009 C 181.836 52.83 184.423 51.591 185.92 51.729 C 187.367 51.862 188.003 52.899 188.422 54.12 C 188.987 55.762 189.596 57.394 189.907 59.11 C 190.443 62.075 187.785 64.488 184.994 63.324 C 183.656 62.766 182.647 62.995 181.503 63.386 C 180.616 63.689 179.723 64.011 178.89 64.436 C 177.427 65.182 176.41 66.245 175.915 67.943 C 174.597 72.46 171.517 75.313 166.873 75.949 C 162.833 76.501 159.621 78.048 156.609 80.897 C 152.046 85.212 146.334 86.233 140.223 84.809 C 138.009 84.294 136.318 82.937 134.917 81.232 C 132.998 78.898 131.742 76.227 131.235 73.236 C 130.317 67.826 132.685 62.943 137.48 60.264 C 139.671 59.038 142.056 58.494 144.522 58.235 C 145.241 58.16 145.967 58.091 146.688 58.106 C 149.912 58.175 152.468 57.024 154.751 54.633 C 158.576 50.627 163.358 49.935 168.015 52.286 Z " fill="rgb(232,40,46)"/><path d=" M 72.498 61.307 C 77.324 62.044 84.308 59.238 87.052 55.18 C 82.899 53.566 75.489 57.031 72.498 61.307 Z  M 105.165 81.292 C 108.083 81.288 110.429 79 110.449 76.136 C 110.47 73.262 108.145 70.848 105.301 70.787 C 102.396 70.725 99.854 73.235 99.905 76.114 C 99.957 79.054 102.235 81.297 105.165 81.292 Z  M 92.406 81.557 C 92.348 78.55 89.819 76.059 86.808 76.044 C 83.769 76.028 81.166 78.707 81.219 81.794 C 81.272 84.926 83.849 87.335 87.04 87.238 C 90.072 87.144 92.465 84.612 92.406 81.557 Z  M 86.241 60.617 C 83.48 62.109 80.854 63.44 77.878 63.966 C 75.232 64.432 72.582 64.728 69.9 64.286 C 67.998 63.972 67.328 62.726 68.451 61.268 C 71.994 56.671 76.316 53.184 82.239 52.198 C 85.017 51.736 87.707 52.105 90.284 53.288 C 91.527 53.86 92.391 54.682 92.874 56.02 C 93.637 58.127 94.679 60.118 95.729 62.1 C 96.945 64.393 98.73 66.146 100.805 67.654 C 101.553 68.198 102.257 68.45 103.205 68.127 C 104.309 67.752 105.466 67.783 106.634 68.008 C 110.134 68.681 112.805 71.385 113.299 74.834 C 113.817 78.452 112.027 81.864 108.784 83.441 C 105.531 85.023 101.703 84.336 99.22 81.723 C 96.825 79.202 96.315 75.371 97.895 72.249 C 98.248 71.55 99.157 71.019 98.975 70.214 C 98.802 69.455 97.892 69.109 97.304 68.588 C 95.493 66.981 94.064 65.092 92.999 62.925 C 92.299 61.501 91.628 60.063 90.95 58.642 C 90.168 58.741 90.056 59.392 89.799 59.869 C 87.888 63.423 86.658 67.163 86.746 71.258 C 86.782 72.941 86.767 72.941 88.46 73.3 C 92.81 74.222 95.853 78.271 95.367 82.49 C 94.85 86.97 91.102 90.292 86.638 90.228 C 83.072 90.178 79.721 87.67 78.656 84.257 C 77.548 80.705 78.815 76.637 81.976 74.717 C 83.455 73.819 83.81 72.835 83.791 71.256 C 83.757 68.272 84.301 65.359 85.474 62.586 C 85.748 61.937 85.986 61.273 86.241 60.617 Z " fill="rgb(232,40,46)"/><path d=" M 133.645 44.55 C 132.397 42.454 132.554 42.048 135.072 41.277 C 135.836 41.043 136.613 40.805 137.146 40.179 C 137.534 39.723 137.71 39.141 137.369 38.572 C 137.01 37.974 136.412 37.985 135.834 38.149 C 135.123 38.351 134.553 38.803 134.043 39.323 C 132.839 40.553 131.551 40.815 129.941 40.005 C 128.53 39.294 127 38.815 125.509 38.273 C 125.089 38.12 124.556 37.702 124.228 38.426 C 123.896 39.155 124.319 39.467 124.945 39.685 C 126.308 40.16 127.643 40.726 129.024 41.133 C 130.973 41.709 132.29 42.655 131.794 44.962 C 131.765 45.098 131.779 45.256 131.815 45.392 C 132.077 46.373 132.354 47.352 133.344 47.879 C 133.621 48.027 133.939 47.988 134.111 47.717 C 134.806 46.621 134.335 45.651 133.645 44.55 Z  M 120.634 31.883 C 117.134 25.615 107.618 21.862 100.434 23.917 C 94.605 25.584 92.678 30.616 95.906 35.751 C 96.136 36.117 96.379 36.481 96.662 36.807 C 100.865 41.65 106.222 43.867 112.583 43.733 C 113.958 43.704 115.284 43.363 116.602 42.934 C 121.276 41.412 123.338 36.171 120.634 31.883 Z  M 92.956 36.557 C 89.283 29.926 92.302 23.097 99.827 20.979 C 107.915 18.703 118.648 22.904 123.03 30.05 C 123.758 31.236 124.301 32.509 124.569 33.856 C 124.751 34.773 125.211 35.233 126.033 35.509 C 126.856 35.785 127.71 36.029 128.459 36.451 C 130.33 37.504 132.065 37.837 133.647 35.965 C 133.818 35.762 134.145 35.679 134.413 35.572 C 136.606 34.696 139.016 35.388 139.95 37.156 C 140.932 39.017 140.223 41.674 138.187 42.8 C 137.014 43.45 136.652 44.043 137.136 45.296 C 137.507 46.258 137.392 47.291 137.044 48.277 C 136.102 50.945 133.166 51.692 131.112 49.753 C 129.847 48.558 129.187 47.034 129.118 45.308 C 129.083 44.461 128.791 43.954 127.98 43.72 C 127.635 43.621 127.294 43.481 126.974 43.316 C 124.752 42.17 122.947 41.893 120.7 43.921 C 117.602 46.717 113.472 47.074 109.404 46.576 C 103.108 45.806 97.791 43.17 93.886 38.02 C 93.711 37.789 93.538 37.557 93.382 37.313 C 93.228 37.069 93.097 36.81 92.956 36.557 Z " fill="rgb(232,40,46)"/><path d=" M 154.911 33.573 C 160.79 35.814 168.218 33.219 171.846 27.812 C 165.418 27.274 159.984 29.495 154.911 33.573 Z  M 152.943 29.859 C 159.72 23.611 161.559 16.116 159.954 7.45 C 153.903 11.01 150.701 21.186 152.943 29.859 Z  M 159.771 27.069 C 161.418 26.589 162.948 25.755 164.636 25.388 C 168.211 24.61 171.812 24.577 175.417 25.025 C 177.27 25.256 177.884 26.646 176.595 27.871 C 172.88 31.398 169.236 35.082 164.199 36.778 C 160.222 38.116 156.363 37.515 152.565 35.988 C 151.326 35.49 150.812 34.413 150.619 33.296 C 149.882 29.025 149.099 24.757 149.513 20.371 C 150.031 14.852 152.532 10.328 156.307 6.424 C 157.308 5.386 158.395 4.418 159.524 3.52 C 160.938 2.395 162.228 2.797 162.57 4.545 C 164.008 11.878 164.065 19.075 160.141 25.809 C 159.94 26.156 159.554 26.459 159.771 27.069 Z " fill="rgb(232,40,46)"/><path d=" M 112.422 282.067 C 113.427 281.982 114.226 281.96 115.017 281.755 C 122.213 279.896 125.813 271.916 122.268 265.651 C 119.29 260.386 112.485 258.755 107.243 262.047 C 102.352 265.12 100.496 271.359 103.097 276.353 C 105.033 280.072 108.248 281.981 112.422 282.067 Z  M 126.188 270.622 C 126.05 275.796 123.889 279.933 119.21 282.659 C 112.689 286.457 104.427 284.169 100.941 277.692 C 97.528 271.352 99.98 263.315 106.429 259.697 C 114.362 255.246 124.327 259.654 125.903 268.318 C 126.041 269.075 126.094 269.846 126.188 270.622 Z " fill="rgb(232,40,46)"/><path d=" M 184.846 283.342 C 185.852 283.257 186.65 283.235 187.441 283.03 C 194.637 281.171 198.238 273.192 194.693 266.926 C 191.714 261.661 184.909 260.03 179.667 263.323 C 174.777 266.396 172.92 272.634 175.521 277.628 C 177.457 281.347 180.672 283.256 184.846 283.342 Z  M 198.612 271.897 C 198.475 277.071 196.314 281.208 191.634 283.934 C 185.113 287.732 176.852 285.444 173.366 278.967 C 169.952 272.628 172.404 264.591 178.854 260.972 C 186.786 256.522 196.751 260.929 198.328 269.593 C 198.466 270.35 198.519 271.121 198.612 271.897 Z " fill="rgb(232,40,46)"/><path d=" M 215.648 120.462 C 216.093 119.247 216.994 118.311 216.051 117.152 C 215.206 116.112 214.079 115.894 212.605 116.27 C 213.475 117.814 214.221 119.209 215.648 120.462 Z  M 192.522 104.934 C 193.864 104.441 194.899 103.834 194.948 102.406 C 194.989 101.19 193.574 99.891 191.906 99.549 C 192.085 101.335 192.018 103.102 192.522 104.934 Z  M 225.324 111.348 C 227.205 107.749 227.142 107.556 223.689 106.18 C 223.499 106.104 223.278 106.105 222.961 106.052 C 222.488 108.422 223.551 110.004 225.324 111.348 Z  M 206.528 132.999 C 204.999 131.131 203.299 130.416 201.894 130.978 C 200.405 131.575 199.568 133.08 199.605 135.281 C 201.96 134.609 204.313 134.098 206.528 132.999 Z  M 211.447 99.891 C 210.186 99.276 209.693 99.482 209.217 100.823 C 208.711 102.255 209.203 104.159 210.336 105.152 C 211.233 105.938 212.165 105.8 212.859 104.779 C 214.141 102.895 213.573 100.929 211.447 99.891 Z  M 216.587 102.603 C 216.447 103.834 216.139 104.791 215.699 105.706 C 214.047 109.131 210.093 109.568 207.79 106.529 C 206.08 104.273 205.74 101.789 206.98 99.186 C 207.286 98.544 207.536 98.058 206.686 97.606 C 203.52 95.92 200.379 94.187 197.215 92.464 C 197 93 197.302 93.253 197.51 93.534 C 201.65 99.115 205.252 105.049 208.898 110.951 C 210 112.734 210.836 114.162 213.516 113.462 C 215.497 112.943 217.484 114.062 218.658 115.968 C 219.823 117.862 219.296 119.724 218.35 121.523 C 218.15 121.902 217.833 122.217 217.584 122.572 C 217.362 122.889 217.286 123.234 217.54 123.569 C 218.25 124.503 218.733 125.647 220.002 126.366 C 221.275 122.814 222.439 119.4 223.736 116.037 C 224.166 114.921 224.061 114.202 223.165 113.387 C 220.827 111.264 219.721 108.612 220.129 105.418 C 220.196 104.9 220.298 104.369 219.705 104.111 C 218.726 103.685 217.909 102.919 216.587 102.603 Z  M 217.899 129.139 C 217.374 128.4 217.004 127.868 216.623 127.346 C 212.567 121.806 208.709 116.134 205.066 110.311 C 201.349 104.371 197.664 98.405 193.321 92.886 C 192.85 92.288 192.347 91.715 191.86 91.131 C 191.526 92.652 191.581 94.062 191.612 95.471 C 191.624 95.99 191.892 96.254 192.356 96.386 C 192.704 96.485 193.065 96.556 193.391 96.705 C 195.86 97.833 197.615 99.627 197.755 102.417 C 197.888 105.042 196.041 106.448 193.855 107.316 C 192.79 107.74 192.68 108.337 192.807 109.302 C 193.128 111.737 193.378 114.181 193.649 116.623 C 194.286 122.367 194.904 128.113 195.572 133.853 C 195.652 134.538 195.543 135.368 196.373 136.056 C 196.609 134.57 196.833 133.293 197.322 132.089 C 198.865 128.296 202.603 126.908 206.22 128.797 C 207.32 129.372 208.231 130.199 209.06 131.114 C 209.522 131.625 209.999 131.958 210.752 131.684 C 213.046 130.852 215.436 130.28 217.899 129.139 Z  M 222.981 126.873 C 222.638 130.214 219.83 131.934 216.139 133.037 C 210.461 134.734 204.927 136.915 199.13 138.234 C 198.145 138.459 197.155 138.718 196.153 138.812 C 194.485 138.967 193.75 138.409 193.342 136.793 C 193.148 136.023 193.006 135.235 192.909 134.447 C 191.16 120.386 189.122 106.355 188.511 92.176 C 188.465 91.095 188.44 90 188.561 88.928 C 188.768 87.087 190.019 86.23 191.781 86.839 C 193.415 87.404 195.014 88.124 196.534 88.951 C 205.556 93.86 214.895 98.148 223.957 102.98 C 225.295 103.693 226.716 104.253 228.067 104.945 C 229.763 105.816 229.991 106.223 229.451 108.038 C 228.751 110.393 227.921 112.711 227.119 115.034 C 225.843 118.725 224.544 122.407 222.981 126.873 Z " fill="rgb(232,40,46)"/><path d=" M 202.634 118.306 C 203.07 117.325 202.485 115.862 201.454 115.355 C 200.614 114.941 199.848 115.223 199.518 116.067 C 199.111 117.109 199.732 118.46 200.827 118.926 C 201.617 119.262 202.227 119.082 202.634 118.306 Z  M 199.707 121.722 C 197.113 120.651 195.727 117.449 196.748 114.885 C 197.667 112.581 200.138 111.559 202.463 112.521 C 205.027 113.581 206.435 116.849 205.417 119.378 C 204.482 121.704 202.068 122.695 199.707 121.722 Z " fill="rgb(232,40,46)"/><path d=" M 136.36 97.516 C 137.956 98.153 139.106 98.995 140.547 99.383 C 140.424 96.192 139.359 95.666 136.36 97.516 Z  M 130.56 122.521 C 128.624 121.827 126.879 121.29 124.994 120.694 C 125.776 124.671 127.166 124.933 130.56 122.521 Z  M 163.193 119.422 C 161.515 119.62 160.007 120.226 158.498 120.836 C 158.103 120.996 157.938 121.308 158.127 121.692 C 158.928 123.309 159.443 125.094 160.715 126.564 C 162.058 124.246 162.904 121.795 163.193 119.422 Z  M 108.288 100.888 C 110.438 104.944 112.702 108.387 116.157 111.167 C 119.096 107.576 120.547 103.521 121.131 99.1 C 121.229 98.365 120.902 98.009 120.136 98.138 C 116.231 98.793 112.395 99.722 108.288 100.888 Z  M 154.284 119.337 C 154.306 118.083 153.734 117.38 153.294 116.651 C 150.163 111.443 146.231 106.941 141.196 103.502 C 136.514 100.304 131.362 98.352 125.636 98.027 C 124.105 97.94 123.952 98.062 123.79 99.601 C 123.446 102.86 122.618 106.006 121.075 108.92 C 120.465 110.068 119.791 111.188 119.062 112.263 C 118.598 112.945 118.598 113.407 119.312 113.866 C 119.92 114.255 120.477 114.724 121.082 115.12 C 124.947 117.654 129.166 119.239 133.734 120.001 C 140.608 121.148 147.389 120.547 154.284 119.337 Z  M 113.789 96.393 C 119.761 94.704 125.767 94.522 131.8 95.999 C 132.575 96.189 133.214 96.079 133.847 95.648 C 134.864 94.953 135.937 94.345 137.085 93.904 C 139.671 92.909 142.049 94.015 143.029 96.61 C 143.445 97.707 143.644 98.855 143.697 100.005 C 143.755 101.265 144.291 102.104 145.271 102.892 C 149.537 106.323 153.038 110.437 155.839 115.143 C 155.913 115.267 155.993 115.388 156.073 115.508 C 156.618 116.336 156.705 117.733 157.659 117.939 C 158.534 118.127 159.586 117.511 160.554 117.23 C 161.594 116.928 162.61 116.499 163.669 116.311 C 165.703 115.951 166.808 116.998 166.436 119.001 C 165.782 122.5 164.609 125.851 163.039 129.04 C 162.181 130.785 160.563 130.951 159.137 129.527 C 157.998 128.389 157.339 126.925 156.611 125.506 C 156.089 124.482 155.943 123.071 154.957 122.524 C 153.965 121.973 152.722 122.697 151.587 122.828 C 146.339 123.43 141.089 123.976 135.811 123.256 C 134.928 123.136 134.29 123.374 133.645 123.925 C 132.374 125.013 130.943 125.868 129.407 126.522 C 126.658 127.692 124.386 126.832 123.178 124.089 C 122.628 122.839 122.217 121.51 121.905 120.179 C 121.689 119.25 121.238 118.69 120.44 118.191 C 114.364 114.395 109.527 109.433 106.315 102.969 C 106.187 102.71 106.033 102.465 105.904 102.206 C 104.762 99.921 105.08 99.071 107.52 98.107 C 109.545 97.307 111.684 96.897 113.789 96.393 Z " fill="rgb(232,40,46)"/><path d=" M 114.849 103.621 C 114.076 103.83 113.231 103.336 113.037 102.561 C 112.834 101.747 113.265 100.962 114.051 100.709 C 114.856 100.451 115.682 100.845 115.95 101.614 C 116.233 102.428 115.706 103.389 114.849 103.621 Z " fill="rgb(232,40,46)"/></g></g></svg>